# xmcd CD database file
#
# Track frame offsets:
#	150
#	9525
#	29778
#	103056
#	166800
#	214028
#	293002
#
# Disc length: 4421 seconds
#
# Revision: 0
# Processed by: cddbd v1.5.1PL2 Copyright (c) Steve Scherf et al.
# Submitted via: CDex 1.50
#
DISCID=5c114307
DTITLE=Ted Williams Fellowship - Live 05-18-99
DYEAR=1999
DGENRE=Jazz
TTITLE0=Intro
TTITLE1=Malinyea
TTITLE2=The Ballad of Papa Shango
TTITLE3=Neilstrodamous
TTITLE4=Variations on a Ballad
TTITLE5=Spirits Rejoice
TTITLE6=Let Your Soul Be Your Pilot
EXTD=YEAR: 1999
EXTT0=
EXTT1=
EXTT2=
EXTT3=
EXTT4=
EXTT5=
EXTT6=
PLAYORDER=
